Coordinates
version=1
nRows=49
nColumns=12
inDegrees=yes

Units are S.I. units (second, meters, Newtons, ...)
Angles are in degrees

endheader
time	SC_y	SC_z	SC_x	AC_y	AC_z	AC_x	GH_y	GH_z	GH_yy	EL_x	PS_y
       0.0              -11.13          16.02          56.78          64.02        -0.2682         -18.31          57.36          51.38         -119.3          45.47          22.07
   0.04726              -11.13          16.02          56.77          64.02        -0.2689         -18.31          57.38          51.38         -119.2          45.47          22.08
   0.09451              -11.13          16.02          56.77          64.02        -0.2696         -18.31           57.4          51.38         -119.2          45.48          22.09
    0.1418              -11.13          16.02          56.77          64.03        -0.2704          -18.3          57.42          51.38         -119.2          45.48          22.09
     0.189              -11.13          16.02          56.77          64.03        -0.2713          -18.3          57.44          51.38         -119.1          45.49           22.1
    0.2363              -11.14          16.02          56.77          64.03        -0.2722         -18.29          57.46          51.39         -119.1           45.5          22.11
    0.2835              -11.14          16.02          56.77          64.03        -0.2732         -18.29          57.48          51.39         -119.1          45.51          22.12
    0.3308              -11.14          16.02          56.76          64.03        -0.2742         -18.28           57.5          51.39         -119.0          45.51          22.12
     0.378              -11.14          16.02          56.76          64.03        -0.2754         -18.27          57.53          51.39         -119.0          45.52          22.13
    0.4253              -11.15          16.03          56.76          64.03        -0.2766         -18.27          57.56           51.4         -118.9          45.53          22.14
    0.4726              -11.15          16.03          56.76          64.03        -0.2778         -18.26          57.59           51.4         -118.9          45.54          22.16
    0.5198              -11.15          16.03          56.75          64.03        -0.2792         -18.25          57.62           51.4         -118.8          45.55          22.17
    0.5671              -11.16          16.03          56.75          64.03        -0.2807         -18.24          57.65          51.41         -118.8          45.56          22.18
    0.6143              -11.16          16.03          56.75          64.03        -0.2823         -18.24          57.69          51.41         -118.7          45.58          22.19
    0.6616              -11.16          16.03          56.74          64.03        -0.2841         -18.23          57.73          51.42         -118.7          45.59          22.21
    0.7088              -11.17          16.04          56.74          64.03         -0.286         -18.22          57.77          51.42         -118.6          45.61          22.22
    0.7561              -11.17          16.04          56.74          64.03        -0.2881          -18.2          57.82          51.43         -118.5          45.62          22.24
    0.8033              -11.18          16.04          56.73          64.04        -0.2903         -18.19          57.87          51.43         -118.4          45.64          22.26
    0.8506              -11.18          16.04          56.73          64.04        -0.2928         -18.18          57.93          51.44         -118.3          45.66          22.28
    0.8979              -11.19          16.05          56.72          64.04        -0.2954         -18.16          57.99          51.44         -118.2          45.68           22.3
    0.9451              -11.19          16.05          56.71          64.04        -0.2984         -18.15          58.06          51.45         -118.1           45.7          22.33
    0.9924               -11.2          16.05          56.71          64.04        -0.3016         -18.13          58.13          51.46         -118.0          45.73          22.35
      1.04              -11.21          16.06           56.7          64.04        -0.3052         -18.11          58.21          51.47         -117.9          45.76          22.38
     1.087              -11.22          16.06          56.69          64.05        -0.3092         -18.09          58.31          51.48         -117.7          45.79          22.42
     1.134              -11.23          16.07          56.68          64.05        -0.3136         -18.06          58.41          51.49         -117.5          45.82          22.45
     1.181              -11.24          16.07          56.67          64.05        -0.3185         -18.04          58.52           51.5         -117.4          45.86          22.49
     1.229              -11.25          16.08          56.66          64.05         -0.324         -18.01          58.65          51.51         -117.1           45.9          22.54
     1.276              -11.26          16.09          56.65          64.06        -0.3303         -17.97          58.79          51.53         -116.9          45.95          22.59
     1.323              -11.28          16.09          56.63          64.06        -0.3373         -17.93          58.95          51.54         -116.6           46.0          22.65
      1.37              -11.29           16.1          56.62          64.07        -0.3452         -17.89          59.13          51.56         -116.3          46.07          22.72
     1.418              -11.31          16.11           56.6          64.07        -0.3543         -17.84          59.34          51.59         -116.0          46.14          22.79
     1.465              -11.34          16.12          56.58          64.08        -0.3648         -17.78          59.58          51.61         -115.6          46.22          22.88
     1.512              -11.36          16.14          56.55          64.08        -0.3768         -17.71          59.86          51.64         -115.1          46.31          22.98
     1.559              -11.39          16.15          56.52          64.09        -0.3908         -17.64          60.18          51.67         -114.6          46.42          23.09
     1.607              -11.43          16.17          56.49           64.1        -0.4072         -17.55          60.56          51.71         -114.0          46.55          23.23
     1.654              -11.47          16.19          56.45          64.11        -0.4265         -17.44           61.0          51.76         -113.3           46.7          23.39
     1.701              -11.52          16.22           56.4          64.12        -0.4494         -17.31          61.52          51.82         -112.4          46.88          23.58
     1.748              -11.58          16.25          56.35          64.14        -0.4769         -17.16          62.16          51.88         -111.3          47.09          23.81
     1.796              -11.65          16.29          56.28          64.15        -0.5102         -16.98          62.92          51.97         -110.1          47.35          24.09
     1.843              -11.74          16.33           56.2          64.18        -0.5508         -16.75          63.85          52.06         -108.5          47.66          24.43
      1.89              -11.84          16.39          56.09           64.2         -0.601         -16.48           65.0          52.19         -106.6          48.05          24.84
     1.937              -11.98          16.46          55.97          64.24        -0.6635         -16.13          66.44          52.34         -104.3          48.54          25.36
     1.985              -12.15          16.54           55.8          64.28        -0.7423          -15.7          68.25          52.53         -101.3          49.15          26.02
     2.032              -12.37          16.65           55.6          64.33        -0.8425         -15.14          70.55          52.77         -97.47          49.93          26.85
     2.079              -12.64           16.8          55.34           64.4        -0.9707         -14.43          73.49          53.08          -92.6          50.93          27.92
     2.127               -13.0          16.98           55.0          64.49         -1.135         -13.53          77.27          53.48         -86.35          52.21          29.29
     2.174              -13.45          17.21          54.57           64.6         -1.345         -12.37          82.09           54.0         -78.38          53.84          31.04
     2.221              -14.02          17.51          54.03          64.75          -1.61         -10.91          88.15          54.64         -68.35          55.89          33.23
     2.268              -14.71          17.86          53.37          64.92         -1.932         -9.128          95.55          55.42         -56.13          58.39          35.91
